<svg baseProfile="tiny" xmlns="http://www.w3.org/2000/svg" width="340.156" height="165.684" overflow="inherit"><g fill="#fff"><path d="M84.034 88.316c0 .414-.019.764-.053 1.047-.035.285-.086.52-.155.706-.07.186-.156.321-.26.405-.104.083-.225.125-.362.125h-12.31c-.457 0-.84-.137-1.151-.405-.312-.271-.468-.709-.468-1.317v-24.39c0-.138.045-.262.136-.374.09-.11.238-.2.446-.271.208-.069.488-.125.84-.167.354-.041.792-.062 1.318-.062.54 0 .982.021 1.329.062.346.042.623.098.831.167s.356.16.446.271c.09.112.135.236.135.374v21.607h8.448c.138 0 .26.038.362.114.104.076.19.201.26.374.068.173.12.401.155.686.035.284.053.632.053 1.048z"/><path d="M110.965 80.594c0 1.648-.242 3.121-.727 4.423-.484 1.301-1.197 2.399-2.139 3.301-.939.897-2.103 1.584-3.487 2.055-1.383.471-2.975.705-4.772.705-1.688 0-3.204-.211-4.546-.633s-2.478-1.062-3.404-1.92c-.927-.859-1.637-1.927-2.127-3.207-.491-1.279-.737-2.777-.737-4.494v-16.337c0-.138.041-.262.125-.374.083-.11.231-.2.446-.271.214-.069.495-.125.841-.167.347-.041.789-.062 1.329-.062.525 0 .961.021 1.309.062.345.042.623.098.829.167.208.069.356.16.446.271.09.112.135.236.135.374v15.859c0 1.065.132 1.988.395 2.771.263.781.64 1.428 1.131 1.941.491.512 1.079.896 1.764 1.15.687.257 1.45.385 2.294.385.858 0 1.625-.133 2.305-.396.678-.263 1.252-.646 1.723-1.151s.833-1.127 1.09-1.867c.256-.74.384-1.581.384-2.522v-16.17c0-.138.041-.262.125-.374.083-.11.229-.2.437-.271.207-.069.487-.125.84-.167.354-.041.792-.062 1.318-.062.525 0 .958.021 1.297.062.339.042.613.098.819.167.208.069.354.16.437.271.083.112.125.236.125.374v16.106h-.005z"/><path d="M141.78 88.689c0 .317-.057.602-.167.852-.109.249-.259.456-.445.622-.188.167-.408.288-.664.363-.257.076-.517.114-.778.114h-2.326c-.484 0-.903-.049-1.256-.146-.354-.098-.678-.273-.976-.53-.297-.256-.584-.603-.861-1.038-.277-.435-.588-.997-.934-1.69l-6.684-12.557c-.388-.748-.781-1.556-1.184-2.42-.401-.863-.761-1.705-1.079-2.521h-.042c.056.997.097 1.989.125 2.978.028.99.042 2.012.042 3.063v14.053c0 .137-.039.262-.114.373-.077.11-.208.205-.394.279-.188.076-.44.137-.758.177-.319.042-.728.062-1.226.062-.484 0-.886-.021-1.205-.062-.317-.04-.566-.101-.748-.177-.18-.074-.303-.169-.373-.279-.069-.111-.104-.236-.104-.373v-24.142c0-.65.189-1.139.57-1.462.38-.325.847-.488 1.399-.488h2.927c.525 0 .97.044 1.329.134s.682.239.965.447.551.496.8.861.505.819.768 1.359l5.231 9.818c.303.595.604 1.18.901 1.753.299.575.585 1.149.861 1.724l.81 1.691c.263.553.52 1.107.768 1.661h.021c-.041-.969-.071-1.979-.094-3.03-.02-1.052-.03-2.055-.03-3.01v-12.6c0-.137.041-.262.124-.373.083-.11.223-.208.416-.291.194-.083.45-.142.769-.176.316-.035.727-.052 1.226-.052.469 0 .863.017 1.182.052.318.034.563.093.736.176.174.083.294.181.364.291.069.111.104.235.104.373v24.142h.004z"/><path d="M171.619 88.564c.165.498.269.893.312 1.184.04.291-.016.508-.167.654-.153.145-.422.235-.81.27s-.921.053-1.599.053c-.707 0-1.256-.012-1.649-.03-.396-.021-.696-.063-.903-.125-.208-.062-.354-.148-.437-.26-.083-.112-.151-.257-.207-.438l-1.807-5.396-5.125-14.737-4.963 14.737-1.703 5.251c-.056.194-.128.356-.218.487-.089.133-.235.236-.436.312-.201.076-.485.128-.852.155-.368.027-.849.042-1.442.042-.637 0-1.136-.021-1.494-.062-.359-.04-.609-.142-.748-.301s-.188-.384-.146-.675.146-.679.312-1.162l8.281-23.829c.083-.236.18-.426.29-.571.111-.145.288-.256.53-.332.242-.077.578-.125 1.007-.146.429-.021.995-.031 1.701-.031.817 0 1.467.011 1.952.031s.861.068 1.131.146c.271.076.463.189.582.342.117.153.218.361.301.623l8.307 23.808zm-12.33-19.698h-.021"/><path d="M196.16 65.981c0 .401-.019.744-.053 1.027-.033.283-.086.513-.154.686-.069.173-.156.301-.261.384-.104.083-.218.125-.343.125h-6.725v21.649c0 .139-.045.263-.135.373-.092.111-.239.201-.447.271-.207.068-.487.125-.84.165-.354.042-.793.062-1.318.062s-.965-.021-1.317-.062c-.354-.04-.634-.097-.841-.165-.208-.069-.354-.159-.444-.271-.092-.11-.138-.234-.138-.373v-21.649h-6.725c-.138 0-.256-.042-.354-.125s-.18-.211-.25-.384c-.068-.173-.121-.402-.154-.686-.034-.283-.052-.626-.052-1.027 0-.415.018-.768.052-1.059.033-.291.086-.521.154-.694.07-.174.152-.298.25-.375.098-.076.216-.114.354-.114h18.93c.125 0 .238.038.343.114.104.077.19.201.261.375.068.172.121.403.154.694.035.292.053.644.053 1.059z"/><path d="M218.091 88.461c0 .402-.019.736-.052 1.006-.035.271-.087.488-.156.654s-.156.289-.259.363c-.104.076-.22.115-.344.115h-13.491c-.456 0-.842-.137-1.151-.405-.312-.271-.468-.709-.468-1.317v-23.415c0-.607.155-1.047.468-1.316.312-.271.695-.405 1.151-.405h13.408c.124 0 .233.034.332.104.097.069.181.19.248.363.069.174.122.396.156.664.035.271.052.613.052 1.027 0 .388-.017.716-.052.985-.034.271-.087.488-.156.655-.067.165-.151.287-.248.362-.099.077-.208.114-.332.114h-9.59v6.56h8.116c.124 0 .239.039.341.114.104.077.191.193.262.353.068.16.12.375.154.645s.054.599.054.985c0 .402-.02.733-.054.997-.034.265-.086.475-.154.633-.069.159-.156.272-.262.343-.102.068-.217.104-.341.104h-8.116v7.575h9.673c.124 0 .238.039.344.115.103.076.188.196.259.362s.121.384.156.654c.034.27.052.606.052 1.006z"/><path d="M243.694 86.531c0 .345-.011.641-.03.882-.021.242-.053.45-.095.622-.041.174-.097.322-.166.445-.068.125-.179.269-.333.428-.149.158-.444.361-.881.611s-.969.487-1.598.717c-.63.228-1.35.418-2.16.57-.81.15-1.684.229-2.624.229-1.841 0-3.502-.283-4.981-.852-1.48-.567-2.74-1.414-3.777-2.543-1.039-1.127-1.835-2.535-2.387-4.224-.555-1.688-.832-3.653-.832-5.896 0-2.283.306-4.311.915-6.082.606-1.771 1.459-3.259 2.552-4.462 1.094-1.205 2.405-2.118 3.934-2.741 1.53-.623 3.214-.935 5.056-.935.747 0 1.466.062 2.158.188.691.125 1.332.288 1.919.488.59.199 1.118.433 1.59.694.47.264.799.488.984.676.188.187.314.342.384.467s.125.285.166.478c.042.194.073.422.095.687.021.263.03.588.03.975 0 .416-.014.77-.042 1.06-.026.291-.075.525-.145.704-.07.181-.153.312-.25.396s-.206.125-.332.125c-.207 0-.47-.121-.789-.364-.317-.242-.729-.512-1.234-.809-.505-.297-1.105-.567-1.805-.811-.7-.241-1.533-.362-2.502-.362-1.064 0-2.018.217-2.854.652-.839.437-1.552 1.06-2.139 1.869-.589.81-1.036 1.789-1.339 2.938-.306 1.148-.458 2.442-.458 3.882 0 1.578.163 2.943.489 4.1.324 1.155.788 2.107 1.391 2.854.602.747 1.327 1.304 2.179 1.67.851.367 1.811.551 2.876.551.969 0 1.807-.114 2.512-.342.705-.229 1.311-.481 1.815-.758.506-.277.921-.526 1.245-.748.325-.222.577-.331.757-.331.139 0 .249.027.332.082.083.056.152.166.208.333.057.166.098.396.125.693.028.298.041.696.041 1.194z"/><path d="M271.416 89.852c0 .139-.047.263-.138.373-.09.111-.237.201-.444.271-.207.068-.483.125-.831.165-.347.042-.78.062-1.308.062-.54 0-.984-.021-1.339-.062-.354-.04-.629-.097-.831-.165-.199-.069-.346-.159-.436-.271-.09-.11-.134-.234-.134-.373v-10.856h-10.045v10.855c0 .139-.041.263-.125.373-.082.111-.229.201-.437.271-.207.068-.482.125-.83.165-.347.042-.789.062-1.328.062-.525 0-.965-.021-1.317-.062-.354-.04-.633-.097-.84-.165-.208-.069-.357-.159-.448-.271-.09-.11-.134-.234-.134-.373v-25.364c0-.138.044-.262.134-.374.091-.11.24-.2.448-.271.207-.069.485-.125.84-.167.354-.041.792-.062 1.317-.062.539 0 .981.021 1.328.062.348.042.623.098.83.167.208.069.354.16.437.271.084.112.125.236.125.374v9.86h10.047v-9.86c0-.138.044-.262.134-.374.09-.11.235-.2.436-.271.202-.069.479-.125.831-.167.354-.041.8-.062 1.339-.062.526 0 .962.021 1.308.062.348.042.624.098.831.167s.354.16.444.271c.091.112.138.236.138.374l-.002 25.365z"/></g></svg>